<svg id="Layer_1" data-name="Layer 1" xmlns="http://www.w3.org/2000/svg" viewBox="0 0 463.43 314.46"><defs><style>.cls-1{fill:none;stroke-width:14px;}.cls-1,.cls-2{stroke:#231f20;stroke-miterlimit:10;}.cls-2{fill:#fff;stroke-width:13px;}.cls-3{fill:#231f20;}</style></defs><path class="cls-1" d="M19.75,7.84H435.12a21.31,21.31,0,0,1,21.31,21.31V294.71a12.75,12.75,0,0,1-12.75,12.75H19.75A12.75,12.75,0,0,1,7,294.71V20.6A12.75,12.75,0,0,1,19.75,7.84Z"/><path class="cls-2" d="M248.63,244.17" transform="translate(-16.91 -86.52)"/><path class="cls-2" d="M248.63,244.17" transform="translate(-16.91 -86.52)"/><path class="cls-1" d="M463.67,105.24c-42.74,75.61-193.16,146.43-211.42,147.39-23,1.21-185-75.51-225.92-151" transform="translate(-16.91 -86.52)"/><circle class="cls-3" cx="49.29" cy="7.76" r="7.76"/></svg>