<?xml version="1.0" encoding="utf-8"?>
<!-- Generator: Adobe Illustrator 24.1.0, SVG Export Plug-In . SVG Version: 6.00 Build 0)  -->
<svg version="1.1" id="Layer_1" xmlns="http://www.w3.org/2000/svg" xmlns:xlink="http://www.w3.org/1999/xlink" x="0px" y="0px"
	 viewBox="0 0 500 500" style="enable-background:new 0 0 500 500;" xml:space="preserve">
<style type="text/css">
	.st0{fill:none;stroke:#000000;stroke-width:14;stroke-linecap:round;stroke-linejoin:round;stroke-miterlimit:10;}
</style>
<path class="st0" d="M247.79,392.5c-4.7,5.5-13.27,5.24-17.63-0.53C204.94,358.51,131,254.8,116.11,169.8
	c-10.28-58.69,39.14-147.17,123.36-146.89c90.92,0.3,144.32,84.59,128.92,152.89C347.19,269.84,273.74,362.11,247.79,392.5z"/>
<path class="st0" d="M158.91,340.23c-10.14,0-95.73,12.67-95.73,58.56c0,55.63,105.87,67.57,176.29,68.7
	c54.59,0.87,186.69-10.78,186.36-68.7c-0.28-49.27-90.29-57.53-101.55-58.66"/>
<circle class="st0" cx="239.38" cy="132.23" r="60.04"/>
</svg>
