<svg id="Layer_1" data-name="Layer 1" xmlns="http://www.w3.org/2000/svg" viewBox="0 0 471.68 353.63"><defs><style>.cls-1,.cls-4{fill:none;stroke-width:14px;}.cls-1,.cls-2,.cls-4{stroke:#231f20;stroke-miterlimit:10;}.cls-2{fill:#fff;stroke-width:13px;}.cls-3{fill:#231f20;}.cls-4{stroke-linecap:round;}</style></defs><path class="cls-1" d="M19.75,8.84H443.37a21.31,21.31,0,0,1,21.31,21.31V333.88a12.75,12.75,0,0,1-12.75,12.75H19.75A12.75,12.75,0,0,1,7,333.88V21.59A12.75,12.75,0,0,1,19.75,8.84Z"/><path class="cls-2" d="M244.2,247.24" transform="translate(-13.91 -69.5)"/><path class="cls-2" d="M244.2,247.24" transform="translate(-13.91 -69.5)"/><circle class="cls-3" cx="24.62" cy="8.74" r="8.74"/><line class="cls-1" x1="6.91" y1="82.76" x2="464.72" y2="82.76"/><path class="cls-4" d="M191.33,242.93l-34.51,27.6a1.66,1.66,0,0,0-.13,2.47L190,306.3" transform="translate(-13.91 -69.5)"/><line class="cls-4" x1="241.93" y1="149.38" x2="209.57" y2="260.84"/><path class="cls-4" d="M290,306.3l34.51-27.61a1.66,1.66,0,0,0,.13-2.47l-33.29-33.29" transform="translate(-13.91 -69.5)"/></svg>